<svg xmlns="http://www.w3.org/2000/svg" viewBox="0 0 850 460" width="850" height="460">
  <defs>
    <filter id="glowLight" x="-20%" y="-20%" width="140%" height="140%">
      <feGaussianBlur stdDeviation="2" result="blur" />
      <feMerge>
        <feMergeNode in="blur" />
        <feMergeNode in="SourceGraphic" />
      </feMerge>
    </filter>
    
    <mask id="wipeMaskLight">
      <rect x="0" y="0" width="0" height="460" fill="white">
        <animate attributeName="width" values="0;850" begin="2s" dur="1s" fill="freeze" />
      </rect>
    </mask>
  </defs>

  <rect width="850" height="460" fill="#f4f7f9" />

  <g>
    <animate attributeName="opacity" values="1;1;0" keyTimes="0;0.9;1" dur="2.2s" fill="freeze" />
    
    <text x="425" y="210" font-family="monospace" font-size="28" fill="#0033a0" text-anchor="middle" font-weight="bold" letter-spacing="6">
      STARK SECURE PROTOCOL
      <animate attributeName="opacity" values="0;1;0;1;0;1" dur="1.5s" fill="freeze" />
    </text>
    <text x="425" y="245" font-family="monospace" font-size="14" fill="#333333" text-anchor="middle" letter-spacing="2" opacity="0">
      AUTHENTICATING USER...
      <animate attributeName="opacity" values="0;1" begin="0.5s" dur="0.1s" fill="freeze" />
    </text>
    <text x="425" y="265" font-family="monospace" font-size="14" fill="#00aa00" text-anchor="middle" font-weight="bold" letter-spacing="2" opacity="0">
      &gt; ACCESS GRANTED: MR. OGUZ &lt;
      <animate attributeName="opacity" values="0;1" begin="1.2s" dur="0.1s" fill="freeze" />
    </text>
  </g>

  <g mask="url(#wipeMaskLight)">
    
    <path d="M 20,40 L 150,40 L 170,20 L 680,20 L 700,40 L 830,40 L 830,420 L 700,420 L 680,440 L 170,440 L 150,420 L 20,420 Z" fill="none" stroke="#0033a0" stroke-width="2" opacity="0.3"/>
    <path d="M 30,50 L 145,50 L 160,35 L 250,35" fill="none" stroke="#0033a0" stroke-width="1.5" opacity="0.6"/>

    <g transform="translate(230, 230)">
      
      <circle cx="0" cy="0" r="145" fill="none" stroke="#0033a0" stroke-width="2" stroke-dasharray="2 12 40 12 100 12" filter="url(#glowLight)">
        <animateTransform attributeName="transform" type="rotate" from="0" to="360" dur="25s" repeatCount="indefinite" />
      </circle>
      <circle cx="0" cy="0" r="130" fill="none" stroke="#94a3b8" stroke-width="4" stroke-dasharray="100 30 20 30 60 40">
        <animateTransform attributeName="transform" type="rotate" from="360" to="0" dur="18s" repeatCount="indefinite" />
      </circle>
      <circle cx="0" cy="0" r="115" fill="none" stroke="#0033a0" stroke-width="1.5" stroke-dasharray="4 4" opacity="0.4">
        <animateTransform attributeName="transform" type="rotate" from="0" to="360" dur="40s" repeatCount="indefinite" />
      </circle>

      <g transform="translate(-130, -115)">
        <path d="M65,40 C75,10 140,5 185,25 C205,32 210,48 208,65 L190,62 C190,50 175,44 155,40 C115,35 85,42 70,65 Z" fill="#0f172a" opacity="0.9"/>
        <path d="M66,68 C60,95 62,125 66,135 C72,185 110,215 140,215 C170,215 202,185 208,135 C212,125 214,95 208,68" fill="none" stroke="#0033a0" stroke-width="2.5"/>
        <path d="M58,88 L132,96 L208,88 L202,112 C196,130 175,135 164,135 C148,135 138,122 132,110 L132,110 C126,122 116,135 100,135 C89,135 65,130 60,112 Z" fill="#ffffff" stroke="#0f172a" stroke-width="3"/>
        <path d="M66,96 L124,102 L122,120 C117,128 106,130 98,128 C84,124 72,112 66,96 Z" fill="#0ea5e9" opacity="0.3"/>
        <path d="M196,96 L138,102 L140,120 C145,128 156,130 164,128 C178,124 190,112 196,96 Z" fill="#0ea5e9" opacity="0.3"/>
        <path d="M118,170 Q140,175 160,170" fill="none" stroke="#0f172a" stroke-width="2"/>
        
        <line x1="40" y1="40" x2="230" y2="40" stroke="#0033a0" stroke-width="2" opacity="0.4">
          <animate attributeName="y1" values="40;220;40" dur="4s" repeatCount="indefinite" />
          <animate attributeName="y2" values="40;220;40" dur="4s" repeatCount="indefinite" />
        </line>
      </g>
    </g>

    <g transform="translate(430, 85)">
      
      <text x="0" y="0" font-family="monospace" font-size="22" fill="#0f172a" font-weight="bold" letter-spacing="2">
        MR. OGUZ <tspan fill="#0033a0">/// VERIFIED</tspan>
      </text>
      <line x1="0" y1="15" x2="360" y2="15" stroke="#0033a0" stroke-width="2" opacity="0.8"/>

      <g transform="translate(0, 45)">
        <rect width="360" height="70" fill="#e2e8f0" rx="6"/>
        <rect width="360" height="70" fill="none" stroke="#94a3b8" stroke-width="1" rx="6"/>
        <text x="15" y="28" font-family="monospace" font-size="12" fill="#64748b" font-weight="bold">WEAPONIZED SCRIPTING:</text>
        <text x="15" y="52" font-family="monospace" font-size="20" fill="#0033a0" font-weight="bold">PYTHON CORE ENG.</text>

        <g transform="translate(210, 25)">
          <rect width="135" height="20" fill="#cbd5e1" stroke="#94a3b8" stroke-width="1"/>
          <rect width="135" height="20" fill="#0033a0">
            <animate attributeName="width" values="50;135;110;135;90;135" dur="3s" repeatCount="indefinite"/>
          </rect>
        </g>
      </g>

      <g transform="translate(0, 135)">
        <rect width="360" height="70" fill="#fee2e2" rx="6"/>
        <rect width="360" height="70" fill="none" stroke="#fca5a5" stroke-width="1" rx="6"/>
        <text x="15" y="28" font-family="monospace" font-size="12" fill="#ef4444" font-weight="bold">GLOBAL COMM LINK:</text>
        <text x="15" y="52" font-family="monospace" font-size="20" fill="#b91c1c" font-weight="bold">wp_oguz.46</text>
        
        <path d="M 210,35 Q 220,10 230,35 T 250,35 T 270,35 T 290,35 T 310,35 T 330,35 T 350,35" fill="none" stroke="#dc2626" stroke-width="2">
          <animate attributeName="d" values="
            M 210,35 Q 220,10 230,35 T 250,35 T 270,35 T 290,35 T 310,35 T 330,35 T 350,35; 
            M 210,35 Q 220,60 230,35 T 250,35 T 270,35 T 290,35 T 310,35 T 330,35 T 350,35; 
            M 210,35 Q 220,10 230,35 T 250,35 T 270,35 T 290,35 T 310,35 T 330,35 T 350,35" 
            dur="1.2s" repeatCount="indefinite"/>
        </path>
      </g>

      <g transform="translate(0, 240)">
        <text x="0" y="0" font-family="monospace" font-size="12" fill="#64748b" font-weight="bold">&gt; POWER_SOURCE_AT_100%...</text>
        <text x="0" y="20" font-family="monospace" font-size="12" fill="#64748b" font-weight="bold">&gt; ALL_SYSTEMS_GO.</text>
        <text x="0" y="40" font-family="monospace" font-size="12" fill="#0033a0" font-weight="bold">&gt; STANDING_BY_
          <animate attributeName="opacity" values="0;1;0" dur="0.8s" repeatCount="indefinite"/>
        </text>
      </g>

    </g>
  </g>
</svg>
